<svg width="460" height="380" viewBox="0 0 460 380" fill="none" xmlns="http://www.w3.org/2000/svg">
  <title>Duetto — lockup principal (emblema)</title>
  <defs>
    
  </defs>
  
  <g transform="translate(150,8) scale(0.8)">
    <circle cx="100" cy="100" r="92" stroke="#C6A15B" stroke-width="1.5"></circle>
    <circle cx="100" cy="100" r="86" stroke="#C6A15B" stroke-width="0.8" opacity="0.45"></circle>
    <g transform="translate(100,20)">
      <g transform="rotate(-18 0 92)">
        <path d="M0,70 L0,120" stroke="#C6A15B" stroke-width="7.5" stroke-linecap="round"></path>
        <rect x="-5" y="64" width="10" height="11" rx="3" fill="#C6A15B"></rect>
        <path d="M0,6 C -22,16 -22,56 0,68" stroke="#1E847B" stroke-width="2.4" stroke-linecap="round"></path>
        <path d="M0,6 C 22,16 22,56 0,68" stroke="#1E847B" stroke-width="2.4" stroke-linecap="round"></path>
        <path d="M0,6 C -10,18 -10,56 0,68" stroke="#1E847B" stroke-width="2.4" stroke-linecap="round"></path>
        <path d="M0,6 C 10,18 10,56 0,68" stroke="#1E847B" stroke-width="2.4" stroke-linecap="round"></path>
        <path d="M0,5 L0,68" stroke="#1E847B" stroke-width="2.4" stroke-linecap="round"></path>
        <path d="M -6,28 C 0,24 0,24 6,28" stroke="#1E847B" stroke-width="1.6" stroke-linecap="round"></path>
        <path d="M -8,46 C 0,42 0,42 8,46" stroke="#1E847B" stroke-width="1.6" stroke-linecap="round"></path>
        <path d="M -5.5,9 C -3,2 3,2 5.5,9" stroke="#1E847B" stroke-width="2.4" stroke-linecap="round"></path>
      </g>
      <g transform="rotate(18 0 92)">
        <path d="M0,70 L0,120" stroke="#C6A15B" stroke-width="7.5" stroke-linecap="round"></path>
        <rect x="-5" y="64" width="10" height="11" rx="3" fill="#C6A15B"></rect>
        <path d="M0,6 C -22,16 -22,56 0,68" stroke="#1E847B" stroke-width="2.4" stroke-linecap="round"></path>
        <path d="M0,6 C 22,16 22,56 0,68" stroke="#1E847B" stroke-width="2.4" stroke-linecap="round"></path>
        <path d="M0,6 C -10,18 -10,56 0,68" stroke="#1E847B" stroke-width="2.4" stroke-linecap="round"></path>
        <path d="M0,6 C 10,18 10,56 0,68" stroke="#1E847B" stroke-width="2.4" stroke-linecap="round"></path>
        <path d="M0,5 L0,68" stroke="#1E847B" stroke-width="2.4" stroke-linecap="round"></path>
        <path d="M -6,28 C 0,24 0,24 6,28" stroke="#1E847B" stroke-width="1.6" stroke-linecap="round"></path>
        <path d="M -8,46 C 0,42 0,42 8,46" stroke="#1E847B" stroke-width="1.6" stroke-linecap="round"></path>
        <path d="M -5.5,9 C -3,2 3,2 5.5,9" stroke="#1E847B" stroke-width="2.4" stroke-linecap="round"></path>
      </g>
    </g>
  </g>
  <line x1="200" y1="248" x2="260" y2="248" stroke="#C6A15B" stroke-width="1" opacity="0.6"></line>
  <text x="232" y="312" text-anchor="middle" class="word" font-size="68">DUETTO</text>
  <text x="234" y="344" text-anchor="middle" class="sub" font-size="12">ATELIÊ DE CHOCOLATE</text>
</svg>