<svg width="560" height="200" viewBox="0 0 560 200" fill="none" xmlns="http://www.w3.org/2000/svg">
  <title>Duetto — lockup horizontal</title>
  <defs>
    
  </defs>
  
  <g transform="translate(10,30) scale(0.7)">
    <circle cx="100" cy="100" r="92" stroke="#C6A15B" stroke-width="1.5"></circle>
    <circle cx="100" cy="100" r="86" stroke="#C6A15B" stroke-width="0.8" opacity="0.45"></circle>
    <g transform="translate(100,20)">
      <g transform="rotate(-18 0 92)">
        <path d="M0,70 L0,120" stroke="#C6A15B" stroke-width="7.5" stroke-linecap="round"></path>
        <rect x="-5" y="64" width="10" height="11" rx="3" fill="#C6A15B"></rect>
        <path d="M0,6 C -22,16 -22,56 0,68" stroke="#1E847B" stroke-width="2.4" stroke-linecap="round"></path>
        <path d="M0,6 C 22,16 22,56 0,68" stroke="#1E847B" stroke-width="2.4" stroke-linecap="round"></path>
        <path d="M0,6 C -10,18 -10,56 0,68" stroke="#1E847B" stroke-width="2.4" stroke-linecap="round"></path>
        <path d="M0,6 C 10,18 10,56 0,68" stroke="#1E847B" stroke-width="2.4" stroke-linecap="round"></path>
        <path d="M0,5 L0,68" stroke="#1E847B" stroke-width="2.4" stroke-linecap="round"></path>
        <path d="M -6,28 C 0,24 0,24 6,28" stroke="#1E847B" stroke-width="1.6" stroke-linecap="round"></path>
        <path d="M -8,46 C 0,42 0,42 8,46" stroke="#1E847B" stroke-width="1.6" stroke-linecap="round"></path>
        <path d="M -5.5,9 C -3,2 3,2 5.5,9" stroke="#1E847B" stroke-width="2.4" stroke-linecap="round"></path>
      </g>
      <g transform="rotate(18 0 92)">
        <path d="M0,70 L0,120" stroke="#C6A15B" stroke-width="7.5" stroke-linecap="round"></path>
        <rect x="-5" y="64" width="10" height="11" rx="3" fill="#C6A15B"></rect>
        <path d="M0,6 C -22,16 -22,56 0,68" stroke="#1E847B" stroke-width="2.4" stroke-linecap="round"></path>
        <path d="M0,6 C 22,16 22,56 0,68" stroke="#1E847B" stroke-width="2.4" stroke-linecap="round"></path>
        <path d="M0,6 C -10,18 -10,56 0,68" stroke="#1E847B" stroke-width="2.4" stroke-linecap="round"></path>
        <path d="M0,6 C 10,18 10,56 0,68" stroke="#1E847B" stroke-width="2.4" stroke-linecap="round"></path>
        <path d="M0,5 L0,68" stroke="#1E847B" stroke-width="2.4" stroke-linecap="round"></path>
        <path d="M -6,28 C 0,24 0,24 6,28" stroke="#1E847B" stroke-width="1.6" stroke-linecap="round"></path>
        <path d="M -8,46 C 0,42 0,42 8,46" stroke="#1E847B" stroke-width="1.6" stroke-linecap="round"></path>
        <path d="M -5.5,9 C -3,2 3,2 5.5,9" stroke="#1E847B" stroke-width="2.4" stroke-linecap="round"></path>
      </g>
    </g>
  </g>
  <line x1="168" y1="55" x2="168" y2="145" stroke="#14201E" stroke-width="1" opacity="0.12"></line>
  <text x="196" y="108" class="word" font-size="58">DUETTO</text>
  <text x="198" y="132" class="sub" font-size="11">ATELIÊ DE CHOCOLATE</text>
</svg>